<svg xmlns="http://www.w3.org/2000/svg" width="50" height="50" viewBox="0 0 50 50" style="fill: rgb(55, 139, 236);">
    <path style="text-indent:0;text-align:start;line-height:normal;text-transform:none;block-progression:tb;-inkscape-font-specification:Bitstream Vera Sans" d="M 25.875 3.40625 C 21.203288 3.492255 18.220404 5.3807765 16.9375 8.3125 C 15.715703 11.104581 15.989369 14.633048 16.875 18.28125 C 16.397706 18.838571 16.021163 19.58954 16.15625 20.71875 C 16.304101 21.947691 16.642843 22.822423 17.125 23.4375 C 17.389819 23.775324 17.739614 23.806548 18.0625 23.96875 C 18.239756 25.014579 18.531142 26.063833 18.96875 26.9375 C 19.220275 27.43966 19.50215 27.905206 19.78125 28.28125 C 19.904828 28.447752 20.087773 28.547272 20.21875 28.6875 C 20.22535 29.921109 20.23134 30.948655 20.125 32.25 C 19.799841 33.033851 19.042319 33.66744 17.8125 34.28125 C 16.543192 34.914769 14.888751 35.50092 13.21875 36.21875 C 11.548749 36.93658 9.8279742 37.811774 8.46875 39.1875 C 7.1095258 40.563226 6.1495527 42.449337 6 44.9375 L 5.9375 46 L 7 46 L 45 46 L 46.0625 46 L 46 44.9375 C 45.850777 42.450266 44.885234 40.563508 43.53125 39.1875 C 42.177266 37.811492 40.476191 36.936719 38.8125 36.21875 C 37.148809 35.500781 35.514479 34.914588 34.25 34.28125 C 33.036819 33.673606 32.268822 33.055916 31.9375 32.28125 C 31.827897 30.963068 31.836951 29.932241 31.84375 28.6875 C 31.973772 28.546021 32.159906 28.448375 32.28125 28.28125 C 32.555306 27.903798 32.81822 27.439482 33.0625 26.9375 C 33.488605 26.061876 33.795589 25.011691 33.96875 23.96875 C 34.283148 23.80649 34.61666 23.766934 34.875 23.4375 C 35.357397 22.822348 35.69643 21.947896 35.84375 20.71875 C 35.975563 19.624609 35.610546 18.902586 35.15625 18.34375 C 35.644491 16.757989 36.268136 14.193718 36.0625 11.5625 C 35.950263 10.126374 35.580976 8.6922373 34.71875 7.5 C 33.928648 6.4074918 32.647679 5.608904 31.03125 5.28125 C 29.981568 3.9193246 28.088357 3.40625 25.90625 3.40625 L 25.875 3.40625 z M 25.90625 5.40625 C 25.91884 5.40625 25.92497 5.4062044 25.9375 5.40625 C 27.95087 5.41358 29.253751 6.0041913 29.625 6.65625 L 29.875 7.0625 L 30.34375 7.125 C 31.734702 7.3182954 32.531476 7.8787686 33.09375 8.65625 C 33.656024 9.4337314 33.968737 10.519001 34.0625 11.71875 C 34.250027 14.118247 33.55999 16.910519 33.125 18.21875 L 32.875 19 L 33.5625 19.40625 C 33.51938 19.38008 33.943811 19.669422 33.84375 20.5 C 33.72607 21.481854 33.492353 21.989402 33.3125 22.21875 C 33.132647 22.448098 33.038894 22.436874 33.03125 22.4375 L 32.1875 22.5 L 32.09375 23.3125 C 32.00106 24.177795 31.653191 25.233964 31.25 26.0625 C 31.048405 26.476768 30.839663 26.841139 30.65625 27.09375 C 30.472837 27.346361 30.279153 27.487787 30.375 27.4375 L 29.84375 27.71875 L 29.84375 28.3125 C 29.84375 29.760155 29.78566 30.948497 29.9375 32.625 L 29.9375 32.75 L 30 32.875 C 30.570884 34.409738 31.891572 35.3664 33.34375 36.09375 C 34.795928 36.8211 36.465316 37.355469 38.03125 38.03125 C 39.597184 38.707031 41.032827 39.51557 42.09375 40.59375 C 42.937074 41.450791 43.468086 42.583483 43.75 44 L 8.25 44 C 8.5327628 42.584119 9.0592672 41.451015 9.90625 40.59375 C 10.971776 39.515288 12.427501 38.70717 14 38.03125 C 15.572499 37.35533 17.230558 36.820918 18.6875 36.09375 C 20.144442 35.366582 21.491064 34.411224 22.0625 32.875 L 22.09375 32.75 L 22.125 32.625 C 22.276805 30.948905 22.21875 29.760607 22.21875 28.3125 L 22.21875 27.71875 L 21.6875 27.4375 C 21.77872 27.48523 21.56365 27.34793 21.375 27.09375 C 21.18635 26.839575 20.957475 26.476715 20.75 26.0625 C 20.335051 25.23407 19.997608 24.168776 19.90625 23.3125 L 19.8125 22.5 L 18.96875 22.4375 C 18.96115 22.436878 18.867343 22.44817 18.6875 22.21875 C 18.507657 21.989327 18.274399 21.482059 18.15625 20.5 C 18.056864 19.669219 18.480627 19.379999 18.4375 19.40625 L 19.09375 19 L 18.90625 18.28125 C 17.964795 14.658031 17.801904 11.363027 18.78125 9.125 C 19.757843 6.8932657 21.748064 5.4905767 25.90625 5.40625 z" color="#000" overflow="visible" enable-background="accumulate" font-family="Bitstream Vera Sans"/>
</svg>